<?xml version="1.0" encoding="UTF-8" standalone="no"?>
<svg
   xmlns:osb="http://www.openswatchbook.org/uri/2009/osb"
   xmlns:dc="http://purl.org/dc/elements/1.1/"
   xmlns:cc="http://creativecommons.org/ns#"
   xmlns:rdf="http://www.w3.org/1999/02/22-rdf-syntax-ns#"
   xmlns:svg="http://www.w3.org/2000/svg"
   xmlns="http://www.w3.org/2000/svg"
   version="1.1"
   id="svg28"
   xml:space="preserve"
   width="571.07037"
   height="288.82877"
   viewBox="0 0 571.07037 288.82878"><metadata
     id="metadata34"><rdf:RDF><cc:Work
         rdf:about=""><dc:format>image/svg+xml</dc:format><dc:type
           rdf:resource="http://purl.org/dc/dcmitype/StillImage" /><dc:title></dc:title></cc:Work></rdf:RDF></metadata><defs
     id="defs32"><marker
       style="overflow:visible"
       id="TriangleInS"
       refX="0"
       refY="0"
       orient="auto"><path
         transform="scale(-0.2)"
         style="fill:#0000ff;fill-opacity:1;fill-rule:evenodd;stroke:#0000ff;stroke-width:1pt;stroke-opacity:1"
         d="M 5.77,0 -2.88,5 V -5 Z"
         id="path1161" /></marker><marker
       style="overflow:visible"
       id="Arrow2Sstart"
       refX="0"
       refY="0"
       orient="auto"><path
         transform="matrix(0.3,0,0,0.3,-0.69,0)"
         d="M 8.7185878,4.0337352 -2.2072895,0.01601326 8.7185884,-4.0017078 c -1.7454984,2.3720609 -1.7354408,5.6174519 -6e-7,8.035443 z"
         style="fill:#0000ff;fill-opacity:1;fill-rule:evenodd;stroke:#0000ff;stroke-width:0.625;stroke-linejoin:round;stroke-opacity:1"
         id="path1052" /></marker><marker
       style="overflow:visible"
       id="Arrow2Send"
       refX="0"
       refY="0"
       orient="auto"><path
         transform="matrix(-0.3,0,0,-0.3,0.69,0)"
         d="M 8.7185878,4.0337352 -2.2072895,0.01601326 8.7185884,-4.0017078 c -1.7454984,2.3720609 -1.7354408,5.6174519 -6e-7,8.035443 z"
         style="fill:#0000ff;fill-opacity:1;fill-rule:evenodd;stroke:#0000ff;stroke-width:0.625;stroke-linejoin:round;stroke-opacity:1"
         id="path1055" /></marker><marker
       style="overflow:visible"
       id="marker1477"
       refX="0"
       refY="0"
       orient="auto"><path
         transform="scale(-0.6)"
         d="M 8.7185878,4.0337352 -2.2072895,0.01601326 8.7185884,-4.0017078 c -1.7454984,2.3720609 -1.7354408,5.6174519 -6e-7,8.035443 z"
         style="fill:#0000ff;fill-opacity:1;fill-rule:evenodd;stroke:#0000ff;stroke-width:0.625;stroke-linejoin:round;stroke-opacity:1"
         id="path1475" /></marker><marker
       style="overflow:visible"
       id="Arrow1Send"
       refX="0"
       refY="0"
       orient="auto"><path
         transform="matrix(-0.2,0,0,-0.2,-1.2,0)"
         style="fill:#0000ff;fill-opacity:1;fill-rule:evenodd;stroke:#0000ff;stroke-width:1pt;stroke-opacity:1"
         d="M 0,0 5,-5 -12.5,0 5,5 Z"
         id="path1037" /></marker><marker
       style="overflow:visible"
       id="marker1285"
       refX="0"
       refY="0"
       orient="auto"><path
         transform="scale(-0.6)"
         d="M 8.7185878,4.0337352 -2.2072895,0.01601326 8.7185884,-4.0017078 c -1.7454984,2.3720609 -1.7354408,5.6174519 -6e-7,8.035443 z"
         style="fill:#0000ff;fill-opacity:1;fill-rule:evenodd;stroke:#0000ff;stroke-width:0.625;stroke-linejoin:round;stroke-opacity:1"
         id="path1049" /></marker><marker
       style="overflow:visible"
       id="Arrow2Mend"
       refX="0"
       refY="0"
       orient="auto"><path
         transform="scale(-0.6)"
         d="M 8.7185878,4.0337352 -2.2072895,0.01601326 8.7185884,-4.0017078 c -1.7454984,2.3720609 -1.7354408,5.6174519 -6e-7,8.035443 z"
         style="fill:#0000ff;fill-opacity:1;fill-rule:evenodd;stroke:#0000ff;stroke-width:0.625;stroke-linejoin:round;stroke-opacity:1"
         id="path1534" /></marker><marker
       style="overflow:visible"
       id="marker2293"
       refX="0"
       refY="0"
       orient="auto"><path
         transform="matrix(-1.1,0,0,-1.1,-1.1,0)"
         d="M 8.7185878,4.0337352 -2.2072895,0.01601326 8.7185884,-4.0017078 c -1.7454984,2.3720609 -1.7354408,5.6174519 -6e-7,8.035443 z"
         style="fill:#0000ff;fill-opacity:1;fill-rule:evenodd;stroke:#0000ff;stroke-width:0.625;stroke-linejoin:round;stroke-opacity:1"
         id="path2291" /></marker><marker
       orient="auto"
       refY="0"
       refX="0"
       id="marker2217"
       style="overflow:visible"><path
         id="path2215"
         d="M 5.77,0 -2.88,5 V -5 Z"
         style="fill:#0000ff;fill-opacity:1;fill-rule:evenodd;stroke:#0000ff;stroke-width:1pt;stroke-opacity:1"
         transform="scale(0.4)" /></marker><marker
       style="overflow:visible"
       id="Arrow2Mstart"
       refX="0"
       refY="0"
       orient="auto"><path
         transform="scale(0.6)"
         d="M 8.7185878,4.0337352 -2.2072895,0.01601326 8.7185884,-4.0017078 c -1.7454984,2.3720609 -1.7354408,5.6174519 -6e-7,8.035443 z"
         style="fill:#0000ff;fill-opacity:1;fill-rule:evenodd;stroke:#0000ff;stroke-width:0.625;stroke-linejoin:round;stroke-opacity:1"
         id="path1531" /></marker><marker
       style="overflow:visible"
       id="marker2077"
       refX="0"
       refY="0"
       orient="auto"><path
         transform="matrix(0.4,0,0,0.4,4,0)"
         style="fill:#70ad47;fill-opacity:1;fill-rule:evenodd;stroke:#70ad47;stroke-width:1pt;stroke-opacity:1"
         d="M 0,0 5,-5 -12.5,0 5,5 Z"
         id="path2075" /></marker><linearGradient
       osb:paint="solid"
       id="linearGradient2061"><stop
         id="stop2059"
         offset="0"
         style="stop-color:#843c0b;stop-opacity:1;" /></linearGradient><marker
       style="overflow:visible"
       id="TriangleOutM"
       refX="0"
       refY="0"
       orient="auto"><path
         transform="scale(0.4)"
         style="fill:#843c0b;fill-opacity:1;fill-rule:evenodd;stroke:#843c0b;stroke-width:1pt;stroke-opacity:1"
         d="M 5.77,0 -2.88,5 V -5 Z"
         id="path1652" /></marker><marker
       style="overflow:visible"
       id="TriangleInM"
       refX="0"
       refY="0"
       orient="auto"><path
         transform="scale(-0.4)"
         style="fill:#843c0b;fill-opacity:1;fill-rule:evenodd;stroke:#843c0b;stroke-width:1pt;stroke-opacity:1"
         d="M 5.77,0 -2.88,5 V -5 Z"
         id="path1643" /></marker><marker
       style="overflow:visible"
       id="Arrow1Lstart"
       refX="0"
       refY="0"
       orient="auto"><path
         transform="matrix(0.8,0,0,0.8,10,0)"
         style="fill:#70ad47;fill-opacity:1;fill-rule:evenodd;stroke:#70ad47;stroke-width:1pt;stroke-opacity:1"
         d="M 0,0 5,-5 -12.5,0 5,5 Z"
         id="path1507" /></marker><marker
       style="overflow:visible"
       id="Arrow1Sstart"
       refX="0"
       refY="0"
       orient="auto"><path
         transform="matrix(0.2,0,0,0.2,1.2,0)"
         style="fill:#843c0b;fill-opacity:1;fill-rule:evenodd;stroke:#843c0b;stroke-width:1pt;stroke-opacity:1"
         d="M 0,0 5,-5 -12.5,0 5,5 Z"
         id="path1519" /></marker><marker
       style="overflow:visible"
       id="Arrow1Mstart"
       refX="0"
       refY="0"
       orient="auto"><path
         transform="matrix(0.4,0,0,0.4,4,0)"
         style="fill:#843c0b;fill-opacity:1;fill-rule:evenodd;stroke:#843c0b;stroke-width:1pt;stroke-opacity:1"
         d="M 0,0 5,-5 -12.5,0 5,5 Z"
         id="path1513" /></marker><marker
       style="overflow:visible"
       id="Arrow2Lend"
       refX="0"
       refY="0"
       orient="auto"><path
         transform="matrix(-1.1,0,0,-1.1,-1.1,0)"
         d="M 8.7185878,4.0337352 -2.2072895,0.01601326 8.7185884,-4.0017078 c -1.7454984,2.3720609 -1.7354408,5.6174519 -6e-7,8.035443 z"
         style="fill:#843c0b;fill-opacity:1;fill-rule:evenodd;stroke:#843c0b;stroke-width:0.625;stroke-linejoin:round;stroke-opacity:1"
         id="path1528" /></marker><marker
       style="overflow:visible"
       id="Arrow2Lstart"
       refX="0"
       refY="0"
       orient="auto"><path
         transform="matrix(1.1,0,0,1.1,1.1,0)"
         d="M 8.7185878,4.0337352 -2.2072895,0.01601326 8.7185884,-4.0017078 c -1.7454984,2.3720609 -1.7354408,5.6174519 -6e-7,8.035443 z"
         style="fill:#843c0b;fill-opacity:1;fill-rule:evenodd;stroke:#843c0b;stroke-width:0.625;stroke-linejoin:round;stroke-opacity:1"
         id="path1525" /></marker><clipPath
       id="clipPath44"
       clipPathUnits="userSpaceOnUse"><path
         id="path42"
         clip-rule="evenodd"
         d="M 0,0.028 H 595.247 V 841.889 H 0 Z" /></clipPath><clipPath
       id="clipPath66"
       clipPathUnits="userSpaceOnUse"><path
         id="path64"
         d="m 240.661,477.694 h 143.263 v 9.044 H 240.661 Z" /></clipPath><clipPath
       id="clipPath102"
       clipPathUnits="userSpaceOnUse"><path
         id="path100"
         d="m 237.713,480.67 h 9.043 v 154.064 h -9.043 z" /></clipPath><marker
       orient="auto"
       refY="0"
       refX="0"
       id="Arrow2Mend-6"
       style="overflow:visible"><path
         id="path1534-4"
         style="fill:#0000ff;fill-opacity:1;fill-rule:evenodd;stroke:#0000ff;stroke-width:0.625;stroke-linejoin:round;stroke-opacity:1"
         d="M 8.7185878,4.0337352 -2.2072895,0.01601326 8.7185884,-4.0017078 c -1.7454984,2.3720609 -1.7354408,5.6174519 -6e-7,8.035443 z"
         transform="scale(-0.6)" /></marker><marker
       style="overflow:visible"
       refX="0"
       refY="0"
       orient="auto"
       id="TriangleInM3321"><path
         transform="scale(-0.4)"
         style="fill:#0000ff;fill-opacity:1;fill-rule:evenodd;stroke:#000000;stroke-width:1pt;stroke-opacity:1"
         d="M 5.77,0 -2.88,5 V -5 Z"
         id="path1803" /></marker><marker
       style="overflow:visible"
       refX="0"
       refY="0"
       orient="auto"
       id="TriangleInM33211174"><path
         transform="scale(-0.4)"
         style="fill:#0000ff;fill-opacity:1;fill-rule:evenodd;stroke:#000000;stroke-width:1pt;stroke-opacity:1"
         d="M 5.77,0 -2.88,5 V -5 Z"
         id="path2045" /></marker><marker
       style="overflow:visible"
       refX="0"
       refY="0"
       orient="auto"
       id="TriangleInM332111748247"><path
         transform="scale(-0.4)"
         style="fill:#0000ff;fill-opacity:1;fill-rule:evenodd;stroke:#0000ff;stroke-width:1pt;stroke-opacity:1"
         d="M 5.77,0 -2.88,5 V -5 Z"
         id="path3051" /></marker></defs><path
     d="M 268.1829,105.23719 C 238.36063,50.774001 67.839468,191.24571 6.6065363,251.59741 86.671987,231.88946 298.00518,159.70037 268.1829,105.23719 Z"
     style="fill:#ed7d31;fill-opacity:1;stroke:#af5c24;stroke-width:4.01432;stroke-linecap:butt;stroke-linejoin:miter;stroke-miterlimit:4;stroke-dasharray:none;stroke-opacity:1"
     id="path679" /><g
     transform="matrix(1.3333333,0,0,-1.3333333,-20.612262,899.9864)"
     id="g2055"><g
       id="g84"><text
         id="text88"
         style="font-variant:normal;font-weight:normal;font-size:18px;font-family:Carlito;-inkscape-font-specification:Carlito;writing-mode:lr-tb;fill:#843c0b;fill-opacity:1;fill-rule:nonzero;stroke:none"
         transform="matrix(1,0,0,-1,220.904,614.976)"><tspan
           id="tspan86"
           y="0"
           x="0">x</tspan></text></g><g
       id="g90"><text
         id="text94"
         style="font-variant:normal;font-weight:normal;font-size:10.403px;font-family:Carlito;-inkscape-font-specification:Carlito;writing-mode:lr-tb;fill:#843c0b;fill-opacity:1;fill-rule:nonzero;stroke:none"
         transform="matrix(1,0,0,-1,228.699,610.497)"><tspan
           id="tspan92"
           y="0"
           x="0">i</tspan></text></g></g><g
     transform="matrix(1.3333333,0,0,-1.3333333,-256.66252,890.85623)"
     id="g2047"><g
       id="g120"><text
         id="text124"
         style="font-variant:normal;font-weight:normal;font-size:18px;font-family:Carlito;-inkscape-font-specification:Carlito;writing-mode:lr-tb;fill:#843c0b;fill-opacity:1;fill-rule:nonzero;stroke:none"
         transform="matrix(1,0,0,-1,357.506,467.602)"><tspan
           id="tspan122"
           y="0"
           x="0">y</tspan></text></g><g
       id="g126"><text
         id="text130"
         style="font-variant:normal;font-weight:normal;font-size:10.403px;font-family:Carlito;-inkscape-font-specification:Carlito;writing-mode:lr-tb;fill:#843c0b;fill-opacity:1;fill-rule:nonzero;stroke:none"
         transform="matrix(1,0,0,-1,365.698,462.982)"><tspan
           id="tspan128"
           y="0"
           x="0">i</tspan></text></g></g><g
     transform="matrix(0.93465835,0.6335515,0.96149978,-0.61624384,-550.64589,297.20884)"
     id="g134"><path
       d="m 437.499,666.424 -127.19,-131.726 9.156,-8.844 -36.199,-0.623 -0.652,36.198 9.156,-8.844 127.191,131.754 z"
       style="fill:#70ad47;fill-opacity:1;fill-rule:evenodd;stroke:none"
       id="path132" /><path
       d="m 437.499,666.424 -127.19,-131.726 9.156,-8.844 -36.199,-0.623 -0.652,36.198 9.156,-8.844 127.191,131.754 z"
       style="fill:none;stroke:#527f34;stroke-width:2.01256;stroke-linecap:butt;stroke-linejoin:round;stroke-miterlimit:10;stroke-dasharray:none;stroke-opacity:1"
       id="path136" /></g><g
     transform="matrix(1.3333333,0,0,-1.3333333,-199.99178,827.67953)"
     id="g138"><text
       y="-479.66428"
       x="281.52124"
       transform="scale(1,-1)"
       style="font-variant:normal;font-weight:normal;font-size:18px;font-family:Carlito;-inkscape-font-specification:Carlito;writing-mode:lr-tb;fill:#70ad47;fill-opacity:1;fill-rule:nonzero;stroke:none"
       id="text142"><tspan
         y="-479.66428"
         x="349.75925"
         id="tspan1010"><tspan
           x="349.75925"
           id="tspan140">Relative flow velocity</tspan></tspan></text></g><g
     style="display:inline"
     transform="matrix(0.26946234,-1.3058207,1.3058207,0.26946234,-464.97516,291.35949)"
     id="g254"><path
       d="m 246.643,628.469 v 0 l 3.174,-0.312 3.203,-0.539 3.232,-0.709 3.26,-0.907 3.288,-1.105 3.288,-1.304 3.288,-1.474 3.26,-1.673 3.26,-1.842 3.232,-2.041 3.174,-2.183 3.175,-2.352 3.09,-2.523 3.005,-2.665 2.976,-2.778 2.863,-2.948 2.778,-3.061 2.665,-3.175 4.648,2.75 1.474,-15.364 -14.882,7.313 4.593,2.778 v 0 l -2.608,3.062 -2.693,2.948 -2.778,2.778 -2.863,2.692 -2.92,2.523 -2.976,2.381 -3.005,2.268 -3.09,2.069 -3.089,1.9 -3.09,1.7 -3.147,1.559 -3.118,1.389 -3.118,1.163 -3.118,0.992 -3.061,0.793 -3.062,0.596 -3.005,0.397 z"
       style="display:inline;fill:#70ad47;fill-opacity:1;fill-rule:evenodd;stroke:none"
       id="path252" /><path
       d="m 246.643,628.469 v 0 l 3.174,-0.312 3.203,-0.539 3.232,-0.709 3.26,-0.907 3.288,-1.105 3.288,-1.304 3.288,-1.474 3.26,-1.673 3.26,-1.842 3.232,-2.041 3.174,-2.183 3.175,-2.352 3.09,-2.523 3.005,-2.665 2.976,-2.778 2.863,-2.948 2.778,-3.061 2.665,-3.175 4.648,2.75 1.474,-15.364 -14.882,7.313 4.593,2.778 v 0 l -2.608,3.062 -2.693,2.948 -2.778,2.778 -2.863,2.692 -2.92,2.523 -2.976,2.381 -3.005,2.268 -3.09,2.069 -3.089,1.9 -3.09,1.7 -3.147,1.559 -3.118,1.389 -3.118,1.163 -3.118,0.992 -3.061,0.793 -3.062,0.596 -3.005,0.397 z"
       style="fill:none;stroke:#527f34;stroke-width:2.01256;stroke-linecap:butt;stroke-linejoin:round;stroke-miterlimit:10;stroke-dasharray:none;stroke-opacity:1"
       id="path256" /></g><g
     transform="matrix(1.3333333,0,0,-1.3333333,47.020443,931.71817)"
     id="g258"><text
       transform="matrix(1,0,0,-1,284.598,631.898)"
       style="font-variant:normal;font-weight:normal;font-size:18px;font-family:Carlito;-inkscape-font-specification:Carlito;writing-mode:lr-tb;fill:#70ad47;fill-opacity:1;fill-rule:nonzero;stroke:none"
       id="text262"><tspan
         id="tspan260">Angle of attack</tspan></text></g><path
     id="path1505"
     d="m 307.00577,82.28286 -122.48926,70.71921 72.73786,125.98566"
     style="fill:none;stroke:#843c0b;stroke-width:4;stroke-linecap:butt;stroke-linejoin:miter;stroke-miterlimit:4;stroke-dasharray:none;stroke-opacity:1;marker-start:url(#TriangleInM);marker-end:url(#TriangleOutM)" /><ellipse
     ry="12.596294"
     rx="11.836939"
     transform="rotate(60)"
     cy="-83.631409"
     cx="225.05167"
     id="path2033"
     style="fill:none;fill-opacity:1;stroke:#843c0b;stroke-width:4;stroke-miterlimit:4;stroke-dasharray:none;stroke-opacity:1" /><path
     id="path2195"
     d="M 302.07254,85.13105 388.53445,35.212257"
     style="fill:none;stroke:#843c0b;stroke-width:2;stroke-linecap:butt;stroke-linejoin:miter;stroke-miterlimit:4;stroke-dasharray:12, 12;stroke-dashoffset:0;stroke-opacity:1" /><path
     id="path2608"
     d="M 184.51651,7.5591907 V 153.00207 H 92.153214"
     style="fill:none;stroke:#0000ff;stroke-width:5;stroke-linecap:butt;stroke-linejoin:miter;stroke-miterlimit:4;stroke-dasharray:none;stroke-opacity:1;marker-start:url(#Arrow2Mstart);marker-end:url(#Arrow2Mend)" /><text
     id="text2630"
     y="67.310547"
     x="192.42804"
     style="font-style:normal;font-variant:normal;font-weight:normal;font-stretch:normal;font-size:48px;line-height:1.25;font-family:TitilliumText25L;-inkscape-font-specification:'TitilliumText25L, Normal';font-variant-ligatures:normal;font-variant-caps:normal;font-variant-numeric:normal;font-feature-settings:normal;text-align:start;letter-spacing:0px;word-spacing:0px;writing-mode:lr-tb;text-anchor:start;fill:#000000;fill-opacity:1;stroke:none;stroke-width:1"
     xml:space="preserve"><tspan
       style="font-size:18.6667px;fill:#0000ff;fill-opacity:1;stroke-width:1"
       y="67.310547"
       x="192.42804"
       id="tspan2628">Lift</tspan></text><text
     id="text2634"
     y="136.26547"
     x="65.330544"
     style="font-style:normal;font-variant:normal;font-weight:normal;font-stretch:normal;font-size:48px;line-height:1.25;font-family:TitilliumText25L;-inkscape-font-specification:'TitilliumText25L, Normal';font-variant-ligatures:normal;font-variant-caps:normal;font-variant-numeric:normal;font-feature-settings:normal;text-align:start;letter-spacing:0px;word-spacing:0px;writing-mode:lr-tb;text-anchor:start;fill:#000000;fill-opacity:1;stroke:none;stroke-width:1"
     xml:space="preserve"><tspan
       style="font-size:18.6667px;fill:#0000ff;fill-opacity:1;stroke-width:1"
       y="136.26547"
       x="65.330544"
       id="tspan2632">Drag</tspan></text><path
     transform="rotate(-60.232331)"
     id="path1020"
     style="fill:none;stroke:#0000ff;stroke-width:6.00412;stroke-linecap:butt;stroke-linejoin:miter;stroke-miterlimit:4;stroke-dasharray:none;stroke-opacity:1;marker-start:url(#TriangleInS);paint-order:normal"
     d="m -10.25794,232.29864 a 29.859537,29.859537 0 0 1 -20.773182,30.71032 29.859537,29.859537 0 0 1 -34.652708,-13.18479 29.859537,29.859537 0 0 1 4.895015,-36.75171" /><text
     id="text3537"
     y="194.08871"
     x="89.793777"
     style="font-style:normal;font-variant:normal;font-weight:normal;font-stretch:normal;font-size:48px;line-height:1.25;font-family:TitilliumText25L;-inkscape-font-specification:'TitilliumText25L, Normal';font-variant-ligatures:normal;font-variant-caps:normal;font-variant-numeric:normal;font-feature-settings:normal;text-align:start;letter-spacing:0px;word-spacing:0px;writing-mode:lr-tb;text-anchor:start;fill:#000000;fill-opacity:1;stroke:none;stroke-width:1"
     xml:space="preserve"><tspan
       style="font-size:18.6667px;fill:#0000ff;fill-opacity:1;stroke-width:1"
       y="194.08871"
       x="89.793777"
       id="tspan3535">Moment</tspan></text><g
     id="g3593"
     transform="matrix(1.3333333,0,0,-1.3333333,-319.08769,766.72634)"><g
       id="g3585"><text
         transform="matrix(1,0,0,-1,357.506,467.602)"
         style="font-variant:normal;font-weight:normal;font-size:18px;font-family:Carlito;-inkscape-font-specification:Carlito;writing-mode:lr-tb;fill:#843c0b;fill-opacity:1;fill-rule:nonzero;stroke:none"
         id="text3583"><tspan
           y="0"
           x="0"
           id="tspan1384"><tspan
             x="0"
             y="0"
             id="tspan3581">z</tspan></tspan></text></g><text
       y="-462.98199"
       x="365.698"
       id="text3589"
       style="font-variant:normal;font-weight:normal;font-size:10.403px;font-family:Carlito;-inkscape-font-specification:Carlito;writing-mode:lr-tb;fill:#843c0b;fill-opacity:1;fill-rule:nonzero;stroke:none"
       transform="scale(1,-1)"><tspan
         id="tspan3587"
         y="-462.98199"
         x="365.698">i</tspan></text></g></svg>
