<?xml version="1.0" encoding="UTF-8" standalone="no"?>
<svg
   xmlns:osb="http://www.openswatchbook.org/uri/2009/osb"
   xmlns:dc="http://purl.org/dc/elements/1.1/"
   xmlns:cc="http://creativecommons.org/ns#"
   xmlns:rdf="http://www.w3.org/1999/02/22-rdf-syntax-ns#"
   xmlns:svg="http://www.w3.org/2000/svg"
   xmlns="http://www.w3.org/2000/svg"
   version="1.1"
   id="svg28"
   xml:space="preserve"
   width="366.40271"
   height="351.84845"
   viewBox="0 0 366.40271 351.84847"><metadata
     id="metadata34"><rdf:RDF><cc:Work
         rdf:about=""><dc:format>image/svg+xml</dc:format><dc:type
           rdf:resource="http://purl.org/dc/dcmitype/StillImage" /><dc:title></dc:title></cc:Work></rdf:RDF></metadata><defs
     id="defs32"><marker
       orient="auto"
       refY="0"
       refX="0"
       id="Arrow2Mend"
       style="overflow:visible"><path
         id="path1534"
         style="fill:#0000ff;fill-opacity:1;fill-rule:evenodd;stroke:#0000ff;stroke-width:0.625;stroke-linejoin:round;stroke-opacity:1"
         d="M 8.7185878,4.0337352 -2.2072895,0.01601326 8.7185884,-4.0017078 c -1.7454984,2.3720609 -1.7354408,5.6174519 -6e-7,8.035443 z"
         transform="scale(-0.6)" /></marker><marker
       orient="auto"
       refY="0"
       refX="0"
       id="marker2293"
       style="overflow:visible"><path
         id="path2291"
         style="fill:#0000ff;fill-opacity:1;fill-rule:evenodd;stroke:#0000ff;stroke-width:0.625;stroke-linejoin:round;stroke-opacity:1"
         d="M 8.7185878,4.0337352 -2.2072895,0.01601326 8.7185884,-4.0017078 c -1.7454984,2.3720609 -1.7354408,5.6174519 -6e-7,8.035443 z"
         transform="matrix(-1.1,0,0,-1.1,-1.1,0)" /></marker><marker
       style="overflow:visible"
       id="marker2217"
       refX="0"
       refY="0"
       orient="auto"><path
         transform="scale(0.4)"
         style="fill:#0000ff;fill-opacity:1;fill-rule:evenodd;stroke:#0000ff;stroke-width:1pt;stroke-opacity:1"
         d="M 5.77,0 -2.88,5 V -5 Z"
         id="path2215" /></marker><marker
       orient="auto"
       refY="0"
       refX="0"
       id="Arrow2Mstart"
       style="overflow:visible"><path
         id="path1531"
         style="fill:#0000ff;fill-opacity:1;fill-rule:evenodd;stroke:#0000ff;stroke-width:0.625;stroke-linejoin:round;stroke-opacity:1"
         d="M 8.7185878,4.0337352 -2.2072895,0.01601326 8.7185884,-4.0017078 c -1.7454984,2.3720609 -1.7354408,5.6174519 -6e-7,8.035443 z"
         transform="scale(0.6)" /></marker><marker
       orient="auto"
       refY="0"
       refX="0"
       id="marker2077"
       style="overflow:visible"><path
         id="path2075"
         d="M 0,0 5,-5 -12.5,0 5,5 Z"
         style="fill:#70ad47;fill-opacity:1;fill-rule:evenodd;stroke:#70ad47;stroke-width:1pt;stroke-opacity:1"
         transform="matrix(0.4,0,0,0.4,4,0)" /></marker><linearGradient
       id="linearGradient2061"
       osb:paint="solid"><stop
         style="stop-color:#843c0b;stop-opacity:1;"
         offset="0"
         id="stop2059" /></linearGradient><marker
       orient="auto"
       refY="0"
       refX="0"
       id="TriangleOutM"
       style="overflow:visible"><path
         id="path1652"
         d="M 5.77,0 -2.88,5 V -5 Z"
         style="fill:#843c0b;fill-opacity:1;fill-rule:evenodd;stroke:#843c0b;stroke-width:1pt;stroke-opacity:1"
         transform="scale(0.4)" /></marker><marker
       orient="auto"
       refY="0"
       refX="0"
       id="TriangleInM"
       style="overflow:visible"><path
         id="path1643"
         d="M 5.77,0 -2.88,5 V -5 Z"
         style="fill:#843c0b;fill-opacity:1;fill-rule:evenodd;stroke:#843c0b;stroke-width:1pt;stroke-opacity:1"
         transform="scale(-0.4)" /></marker><marker
       orient="auto"
       refY="0"
       refX="0"
       id="Arrow1Lstart"
       style="overflow:visible"><path
         id="path1507"
         d="M 0,0 5,-5 -12.5,0 5,5 Z"
         style="fill:#70ad47;fill-opacity:1;fill-rule:evenodd;stroke:#70ad47;stroke-width:1pt;stroke-opacity:1"
         transform="matrix(0.8,0,0,0.8,10,0)" /></marker><marker
       orient="auto"
       refY="0"
       refX="0"
       id="Arrow1Sstart"
       style="overflow:visible"><path
         id="path1519"
         d="M 0,0 5,-5 -12.5,0 5,5 Z"
         style="fill:#843c0b;fill-opacity:1;fill-rule:evenodd;stroke:#843c0b;stroke-width:1pt;stroke-opacity:1"
         transform="matrix(0.2,0,0,0.2,1.2,0)" /></marker><marker
       orient="auto"
       refY="0"
       refX="0"
       id="Arrow1Mstart"
       style="overflow:visible"><path
         id="path1513"
         d="M 0,0 5,-5 -12.5,0 5,5 Z"
         style="fill:#843c0b;fill-opacity:1;fill-rule:evenodd;stroke:#843c0b;stroke-width:1pt;stroke-opacity:1"
         transform="matrix(0.4,0,0,0.4,4,0)" /></marker><marker
       orient="auto"
       refY="0"
       refX="0"
       id="Arrow2Lend"
       style="overflow:visible"><path
         id="path1528"
         style="fill:#843c0b;fill-opacity:1;fill-rule:evenodd;stroke:#843c0b;stroke-width:0.625;stroke-linejoin:round;stroke-opacity:1"
         d="M 8.7185878,4.0337352 -2.2072895,0.01601326 8.7185884,-4.0017078 c -1.7454984,2.3720609 -1.7354408,5.6174519 -6e-7,8.035443 z"
         transform="matrix(-1.1,0,0,-1.1,-1.1,0)" /></marker><marker
       orient="auto"
       refY="0"
       refX="0"
       id="Arrow2Lstart"
       style="overflow:visible"><path
         id="path1525"
         style="fill:#843c0b;fill-opacity:1;fill-rule:evenodd;stroke:#843c0b;stroke-width:0.625;stroke-linejoin:round;stroke-opacity:1"
         d="M 8.7185878,4.0337352 -2.2072895,0.01601326 8.7185884,-4.0017078 c -1.7454984,2.3720609 -1.7354408,5.6174519 -6e-7,8.035443 z"
         transform="matrix(1.1,0,0,1.1,1.1,0)" /></marker><clipPath
       clipPathUnits="userSpaceOnUse"
       id="clipPath44"><path
         d="M 0,0.028 H 595.247 V 841.889 H 0 Z"
         clip-rule="evenodd"
         id="path42" /></clipPath><clipPath
       clipPathUnits="userSpaceOnUse"
       id="clipPath66"><path
         d="m 240.661,477.694 h 143.263 v 9.044 H 240.661 Z"
         id="path64" /></clipPath><clipPath
       clipPathUnits="userSpaceOnUse"
       id="clipPath102"><path
         d="m 237.713,480.67 h 9.043 v 154.064 h -9.043 z"
         id="path100" /></clipPath><marker
       style="overflow:visible"
       id="Arrow2Mend-6"
       refX="0"
       refY="0"
       orient="auto"><path
         transform="scale(-0.6)"
         d="M 8.7185878,4.0337352 -2.2072895,0.01601326 8.7185884,-4.0017078 c -1.7454984,2.3720609 -1.7354408,5.6174519 -6e-7,8.035443 z"
         style="fill:#0000ff;fill-opacity:1;fill-rule:evenodd;stroke:#0000ff;stroke-width:0.625;stroke-linejoin:round;stroke-opacity:1"
         id="path1534-4" /></marker></defs><g
     id="g36"
     transform="matrix(1.3333333,0,0,-1.3333333,-167.34792,866.9021)"><g
       id="g38"
       transform="translate(1.0163237,-2.2677383)"><path
         id="path679"
         style="fill:#ed7d31;fill-opacity:1;stroke:#af5c24;stroke-width:3.01074;stroke-linecap:butt;stroke-linejoin:miter;stroke-miterlimit:4;stroke-dasharray:none;stroke-opacity:1"
         d="m 255.40343,390.06336 c 0,0 52.74707,148.03098 -43.50051,215.15095 -96.24756,-67.11997 -43.5005,-215.15095 -43.5005,-215.15095 29.00033,0 58.00068,0 87.00101,0 z" /><g
         id="g50" /><g
         id="g2055"
         transform="translate(-30.437091,-78.044622)"><g
           id="g84"><text
             transform="matrix(1,0,0,-1,220.904,614.976)"
             style="font-variant:normal;font-weight:normal;font-size:18px;font-family:Carlito;-inkscape-font-specification:Carlito;writing-mode:lr-tb;fill:#843c0b;fill-opacity:1;fill-rule:nonzero;stroke:none"
             id="text88"><tspan
               x="0"
               y="0"
               id="tspan86">x</tspan></text></g><g
           id="g90"><text
             transform="matrix(1,0,0,-1,228.699,610.497)"
             style="font-variant:normal;font-weight:normal;font-size:10.403px;font-family:Carlito;-inkscape-font-specification:Carlito;writing-mode:lr-tb;fill:#843c0b;fill-opacity:1;fill-rule:nonzero;stroke:none"
             id="text94"><tspan
               x="0"
               y="0"
               id="tspan92">b</tspan></text></g></g><g
         id="g2047"
         transform="translate(-55.62333,-36.533691)"><g
           id="g120"><text
             transform="matrix(1,0,0,-1,357.506,467.602)"
             style="font-variant:normal;font-weight:normal;font-size:18px;font-family:Carlito;-inkscape-font-specification:Carlito;writing-mode:lr-tb;fill:#843c0b;fill-opacity:1;fill-rule:nonzero;stroke:none"
             id="text124"><tspan
               x="0"
               y="0"
               id="tspan122">y</tspan></text></g><g
           id="g126"><text
             transform="matrix(1,0,0,-1,365.698,462.982)"
             style="font-variant:normal;font-weight:normal;font-size:10.403px;font-family:Carlito;-inkscape-font-specification:Carlito;writing-mode:lr-tb;fill:#843c0b;fill-opacity:1;fill-rule:nonzero;stroke:none"
             id="text130"><tspan
               x="0"
               y="0"
               id="tspan128">b</tspan></text></g></g><path
         id="path132"
         style="fill:#70ad47;fill-opacity:1;fill-rule:evenodd;stroke:none"
         d="m 374.3107,633.80573 -127.19,-131.726 9.156,-8.844 -36.199,-0.623 -0.652,36.198 9.156,-8.844 127.191,131.754 z" /><g
         id="g134"
         transform="translate(-63.1883,-32.61827)"><path
           id="path136"
           style="fill:none;stroke:#527f34;stroke-width:2.01256;stroke-linecap:butt;stroke-linejoin:round;stroke-miterlimit:10;stroke-dasharray:none;stroke-opacity:1"
           d="m 437.499,666.424 -127.19,-131.726 9.156,-8.844 -36.199,-0.623 -0.652,36.198 9.156,-8.844 127.191,131.754 z" /></g><g
         id="g138"
         transform="translate(-64.511758,-15.009123)"><text
           id="text142"
           style="font-variant:normal;font-weight:normal;font-size:18px;font-family:Carlito;-inkscape-font-specification:Carlito;writing-mode:lr-tb;fill:#70ad47;fill-opacity:1;fill-rule:nonzero;stroke:none"
           transform="matrix(1,0,0,-1,356.995,546.887)"><tspan
             id="tspan140"
             y="0"
             x="0 10.404 19.889999 29.375999 37.98 43.973999 52.956001 62.153999 68.237999 72.234001 85.122002 89.225998 98.622002">Apparent wind</tspan></text></g><path
         id="path252"
         style="fill:#70ad47;fill-opacity:1;fill-rule:evenodd;stroke:none"
         d="m 211.68788,614.99883 v 0 l 3.174,-0.312 3.203,-0.539 3.232,-0.709 3.26,-0.907 3.288,-1.105 3.288,-1.304 3.288,-1.474 3.26,-1.673 3.26,-1.842 3.232,-2.041 3.174,-2.183 3.175,-2.352 3.09,-2.523 3.005,-2.665 2.976,-2.778 2.863,-2.948 2.778,-3.061 2.665,-3.175 4.648,2.75 1.474,-15.364 -14.882,7.313 4.593,2.778 v 0 l -2.608,3.062 -2.693,2.948 -2.778,2.778 -2.863,2.692 -2.92,2.523 -2.976,2.381 -3.005,2.268 -3.09,2.069 -3.089,1.9 -3.09,1.7 -3.147,1.559 -3.118,1.389 -3.118,1.163 -3.118,0.992 -3.061,0.793 -3.062,0.596 -3.005,0.397 z" /><g
         id="g254"
         transform="translate(-34.955125,-13.470174)"><path
           id="path256"
           style="fill:none;stroke:#527f34;stroke-width:2.01256;stroke-linecap:butt;stroke-linejoin:round;stroke-miterlimit:10;stroke-dasharray:none;stroke-opacity:1"
           d="m 246.643,628.469 v 0 l 3.174,-0.312 3.203,-0.539 3.232,-0.709 3.26,-0.907 3.288,-1.105 3.288,-1.304 3.288,-1.474 3.26,-1.673 3.26,-1.842 3.232,-2.041 3.174,-2.183 3.175,-2.352 3.09,-2.523 3.005,-2.665 2.976,-2.778 2.863,-2.948 2.778,-3.061 2.665,-3.175 4.648,2.75 1.474,-15.364 -14.882,7.313 4.593,2.778 v 0 l -2.608,3.062 -2.693,2.948 -2.778,2.778 -2.863,2.692 -2.92,2.523 -2.976,2.381 -3.005,2.268 -3.09,2.069 -3.089,1.9 -3.09,1.7 -3.147,1.559 -3.118,1.389 -3.118,1.163 -3.118,0.992 -3.061,0.793 -3.062,0.596 -3.005,0.397 z" /></g><g
         id="g258"
         transform="translate(-34.997539,-20.643982)"><text
           id="text262"
           style="font-variant:normal;font-weight:normal;font-size:18px;font-family:Carlito;-inkscape-font-specification:Carlito;writing-mode:lr-tb;fill:#70ad47;fill-opacity:1;fill-rule:nonzero;stroke:none"
           transform="matrix(1,0,0,-1,284.598,631.898)"><tspan
             id="tspan260"
             y="0"
             x="0 9.7019997 25.002001">AWA</tspan></text></g><path
         style="fill:none;stroke:#843c0b;stroke-width:3;stroke-linecap:butt;stroke-linejoin:miter;stroke-miterlimit:4;stroke-dasharray:none;stroke-opacity:1;marker-start:url(#TriangleInM);marker-end:url(#TriangleOutM)"
         d="M 211.77288,554.17513 V 448.09632 h 109.10679"
         id="path1505" /><ellipse
         style="fill:none;fill-opacity:1;stroke:#843c0b;stroke-width:3;stroke-miterlimit:4;stroke-dasharray:none;stroke-opacity:1"
         id="path2033"
         cx="211.9902"
         cy="-448.34869"
         transform="scale(1,-1)"
         rx="8.8777046"
         ry="9.4472208" /><circle
         style="fill:#ff0000;fill-opacity:1;stroke:none;stroke-width:3;stroke-miterlimit:4;stroke-dasharray:none;stroke-opacity:1"
         id="path2057"
         cx="211.91664"
         cy="-485.85486"
         transform="scale(1,-1)"
         r="8.0214233" /><path
         style="fill:none;stroke:#843c0b;stroke-width:1.5;stroke-linecap:butt;stroke-linejoin:miter;stroke-miterlimit:4;stroke-dasharray:9, 9;stroke-dashoffset:0;stroke-opacity:1"
         d="m 211.77288,549.90283 v 74.87821"
         id="path2195" /><text
         xml:space="preserve"
         style="font-style:normal;font-variant:normal;font-weight:normal;font-stretch:normal;font-size:36px;line-height:1.25;font-family:TitilliumText25L;-inkscape-font-specification:'TitilliumText25L, Normal';font-variant-ligatures:normal;font-variant-caps:normal;font-variant-numeric:normal;font-feature-settings:normal;text-align:start;letter-spacing:0px;word-spacing:0px;writing-mode:lr-tb;text-anchor:start;fill:#000000;fill-opacity:1;stroke:none;stroke-width:0.75"
         x="219.96286"
         y="-468.62485"
         id="text2199"
         transform="scale(1,-1)"><tspan
           id="tspan2197"
           x="219.96286"
           y="-468.62485"
           style="font-size:14px;fill:#ff0000;fill-opacity:1;stroke-width:0.75">Calculation point</tspan></text><path
         style="fill:none;stroke:#0000ff;stroke-width:3.75;stroke-linecap:butt;stroke-linejoin:miter;stroke-miterlimit:4;stroke-dasharray:none;stroke-opacity:1;marker-start:url(#Arrow2Mstart);marker-end:url(#Arrow2Mend)"
         d="m 150.03404,546.06391 61.73884,-60.63109 -31.9125,-37.3365"
         id="path2608" /><text
         xml:space="preserve"
         style="font-style:normal;font-variant:normal;font-weight:normal;font-stretch:normal;font-size:36px;line-height:1.25;font-family:TitilliumText25L;-inkscape-font-specification:'TitilliumText25L, Normal';font-variant-ligatures:normal;font-variant-caps:normal;font-variant-numeric:normal;font-feature-settings:normal;text-align:start;letter-spacing:0px;word-spacing:0px;writing-mode:lr-tb;text-anchor:start;fill:#000000;fill-opacity:1;stroke:none;stroke-width:0.75"
         x="123.23462"
         y="-521.71899"
         id="text2630"
         transform="scale(1,-1)"><tspan
           id="tspan2628"
           x="123.23462"
           y="-521.71899"
           style="font-size:14px;fill:#0000ff;fill-opacity:1;stroke-width:0.75">Lift</tspan></text><text
         xml:space="preserve"
         style="font-style:normal;font-variant:normal;font-weight:normal;font-stretch:normal;font-size:36px;line-height:1.25;font-family:TitilliumText25L;-inkscape-font-specification:'TitilliumText25L, Normal';font-variant-ligatures:normal;font-variant-caps:normal;font-variant-numeric:normal;font-feature-settings:normal;text-align:start;letter-spacing:0px;word-spacing:0px;writing-mode:lr-tb;text-anchor:start;fill:#000000;fill-opacity:1;stroke:none;stroke-width:0.75"
         x="163.50177"
         y="-427.39371"
         id="text2634"
         transform="scale(1,-1)"><tspan
           id="tspan2632"
           x="163.50177"
           y="-427.39371"
           style="font-size:14px;fill:#0000ff;fill-opacity:1;stroke-width:0.75">Drag</tspan></text></g></g></svg>
