<?xml version="1.0" encoding="UTF-8"?>
<svg width="342.11" height="427.03" version="1.1" viewBox="0 0 342.11 427.03" xml:space="preserve" xmlns="http://www.w3.org/2000/svg" xmlns:cc="http://creativecommons.org/ns#" xmlns:dc="http://purl.org/dc/elements/1.1/" xmlns:rdf="http://www.w3.org/1999/02/22-rdf-syntax-ns#"><metadata><rdf:RDF><cc:Work rdf:about=""><dc:format>image/svg+xml</dc:format><dc:type rdf:resource="http://purl.org/dc/dcmitype/StillImage"/><dc:title/></cc:Work></rdf:RDF></metadata><defs><clipPath id="clipPath66"><path d="m240.66 477.69h143.26v9.044h-143.26z"/></clipPath><clipPath id="clipPath102"><path d="m237.71 480.67h9.043v154.06h-9.043z"/></clipPath></defs><g transform="matrix(1.3333 0 0 -1.3333 -277.66 948.02)"><g transform="translate(1.0163 -2.2677)"><path d="m276.21 484.98-0.255-90.964-67.72 0.198 0.51 181.93 67.72-0.198z" fill="#ed7d31" fill-rule="evenodd"/><path d="m276.21 484.98-0.255-90.964-67.72 0.198 0.51 181.93 67.72-0.198z" fill="none" stroke="#af5c24" stroke-linejoin="round" stroke-miterlimit="10" stroke-width="2.0126"/><path d="m233.6 485.06v0.482l0.057 0.453 0.057 0.482 0.085 0.454 0.113 0.453 0.113 0.454 0.17 0.453 0.171 0.425 0.198 0.426 0.227 0.425 0.226 0.397 0.256 0.397 0.283 0.368 0.312 0.369 0.312 0.34 0.34 0.312 0.34 0.311 0.368 0.284 0.369 0.283 0.794 0.454 0.425 0.227 0.425 0.17 0.425 0.141 0.454 0.142 0.453 0.114 0.454 0.085 0.453 0.056 0.454 0.057h0.907l0.454-0.057 0.453-0.056 0.454-0.085 0.453-0.114 0.454-0.142 0.425-0.141 0.425-0.17 0.425-0.227 0.794-0.454 0.369-0.283 0.368-0.284 0.34-0.311 0.34-0.312 0.312-0.34 0.312-0.369 0.284-0.368 0.255-0.397 0.226-0.397 0.227-0.425 0.199-0.426 0.17-0.425 0.17-0.453 0.113-0.454 0.114-0.453 0.085-0.454 0.056-0.482 0.057-0.453v-0.482h-0.028v-0.482l-0.057-0.454-0.057-0.482-0.085-0.453-0.113-0.454-0.114-0.453-0.17-0.454-0.17-0.425-0.198-0.425-0.199-0.425-0.51-0.794-0.283-0.368-0.284-0.341-0.312-0.34-0.34-0.34-0.34-0.312-0.368-0.283-0.397-0.255-0.369-0.255-0.425-0.227-0.397-0.199-0.425-0.198-0.425-0.142-0.454-0.142-0.453-0.113-0.454-0.085-0.453-0.057-0.454-0.056h-0.453v0.028h-0.454l-0.454 0.057-0.453 0.056-0.454 0.085-0.453 0.114-0.454 0.142-0.425 0.141-0.425 0.17-0.397 0.227-0.425 0.199-0.397 0.255-0.369 0.255-0.368 0.312-0.34 0.283-0.34 0.34-0.312 0.34-0.312 0.341-0.255 0.396-0.284 0.369-0.226 0.397-0.227 0.425-0.198 0.425-0.171 0.425-0.17 0.454-0.113 0.453-0.113 0.454-0.085 0.453-0.057 0.482-0.057 0.454z" fill="#ed7d31" fill-rule="evenodd"/><path d="m233.6 485.06v0.482l0.057 0.453 0.057 0.482 0.085 0.454 0.113 0.453 0.113 0.454 0.17 0.453 0.171 0.425 0.198 0.426 0.227 0.425 0.226 0.397 0.256 0.397 0.283 0.368 0.312 0.369 0.312 0.34 0.34 0.312 0.34 0.311 0.368 0.284 0.369 0.283 0.794 0.454 0.425 0.227 0.425 0.17 0.425 0.141 0.454 0.142 0.453 0.114 0.454 0.085 0.453 0.056 0.454 0.057h0.907l0.454-0.057 0.453-0.056 0.454-0.085 0.453-0.114 0.454-0.142 0.425-0.141 0.425-0.17 0.425-0.227 0.794-0.454 0.369-0.283 0.368-0.284 0.34-0.311 0.34-0.312 0.312-0.34 0.312-0.369 0.284-0.368 0.255-0.397 0.226-0.397 0.227-0.425 0.199-0.426 0.17-0.425 0.17-0.453 0.113-0.454 0.114-0.453 0.085-0.454 0.056-0.482 0.057-0.453v-0.482h-0.028v-0.482l-0.057-0.454-0.057-0.482-0.085-0.453-0.113-0.454-0.114-0.453-0.17-0.454-0.17-0.425-0.198-0.425-0.199-0.425-0.51-0.794-0.283-0.368-0.284-0.341-0.312-0.34-0.34-0.34-0.34-0.312-0.368-0.283-0.397-0.255-0.369-0.255-0.425-0.227-0.397-0.199-0.425-0.198-0.425-0.142-0.454-0.142-0.453-0.113-0.454-0.085-0.453-0.057-0.454-0.056h-0.453v0.028h-0.454l-0.454 0.057-0.453 0.056-0.454 0.085-0.453 0.114-0.454 0.142-0.425 0.141-0.425 0.17-0.397 0.227-0.425 0.199-0.397 0.255-0.369 0.255-0.368 0.312-0.34 0.283-0.34 0.34-0.312 0.34-0.312 0.341-0.255 0.396-0.284 0.369-0.226 0.397-0.227 0.425-0.198 0.425-0.171 0.425-0.17 0.454-0.113 0.453-0.113 0.454-0.085 0.453-0.057 0.482-0.057 0.454z" fill="none" stroke="#af5c24" stroke-linejoin="round" stroke-miterlimit="10" stroke-width="2.0126"/><g clip-path="url(#clipPath66)" opacity=".35"><path d="m242.16 482.17 133.31 0.057" fill="none" stroke="#000" stroke-linejoin="round" stroke-miterlimit="10" stroke-width="3.0047"/><path d="m383.9 482.23-9.014-4.507v9.014z" fill-rule="evenodd"/></g><path d="m242.16 483.99 133.31 0.056" fill="none" stroke="#843c0b" stroke-linejoin="round" stroke-miterlimit="10" stroke-width="3.0047"/><path d="m383.9 484.04-9.014-4.507v9.014z" fill="#843c0b" fill-rule="evenodd"/><text transform="matrix(1 0 0 -1 220.9 614.98)" fill="#843c0b" font-family="Carlito" font-size="18px"><tspan x="0" y="0">x</tspan></text><text transform="matrix(1 0 0 -1 228.7 610.5)" fill="#843c0b" font-family="Carlito" font-size="10.403px"><tspan x="0" y="0">b</tspan></text><g clip-path="url(#clipPath102)" opacity=".35"><path d="m242.25 482.2-0.029 144.11" fill="none" stroke="#000" stroke-linejoin="round" stroke-miterlimit="10" stroke-width="3.0047"/><path d="m242.22 634.73 4.508-9.014h-9.015z" fill-rule="evenodd"/></g><path d="m242.25 484.02-0.029 144.11" fill="none" stroke="#843c0b" stroke-linejoin="round" stroke-miterlimit="10" stroke-width="3.0047"/><path d="m242.22 636.55 4.508-9.014h-9.015z" fill="#843c0b" fill-rule="evenodd"/><text transform="matrix(1 0 0 -1 357.51 467.6)" fill="#843c0b" font-family="Carlito" font-size="18px"><tspan x="0" y="0">y</tspan></text><text transform="matrix(1 0 0 -1 365.7 462.98)" fill="#843c0b" font-family="Carlito" font-size="10.403px"><tspan x="0" y="0">b</tspan></text><path d="m437.5 666.42-127.19-131.73 9.156-8.844-36.199-0.623-0.652 36.198 9.156-8.844 127.19 131.75z" fill="#70ad47" fill-rule="evenodd"/><path d="m437.5 666.42-127.19-131.73 9.156-8.844-36.199-0.623-0.652 36.198 9.156-8.844 127.19 131.75z" fill="none" stroke="#527f34" stroke-linejoin="round" stroke-miterlimit="10" stroke-width="2.0126"/><text transform="matrix(1 0 0 -1 357 546.89)" fill="#70ad47" font-family="Carlito" font-size="18px"><tspan x="0 10.404 19.889999 29.375999 37.98 43.973999 52.956001 62.153999 68.237999 72.234001 85.122002 89.225998 98.622002" y="0">Apparent wind</tspan></text><path d="m242.19 483.99 4.791 5.017" fill="none" stroke="#6dac43" stroke-linejoin="round" stroke-miterlimit="10" stroke-width=".73699"/><path d="m250.41 492.6 4.79 5.017" fill="none" stroke="#6dac43" stroke-linejoin="round" stroke-miterlimit="10" stroke-width=".73699"/><path d="m258.63 501.22 4.791 5.018" fill="none" stroke="#6dac43" stroke-linejoin="round" stroke-miterlimit="10" stroke-width=".73699"/><path d="m266.85 509.84 4.79 5.017" fill="none" stroke="#6dac43" stroke-linejoin="round" stroke-miterlimit="10" stroke-width=".73699"/><path d="m275.05 518.46 4.819 5.017" fill="none" stroke="#6dac43" stroke-linejoin="round" stroke-miterlimit="10" stroke-width=".73699"/><path d="m283.27 527.07 4.791 5.018" fill="none" stroke="#6dac43" stroke-linejoin="round" stroke-miterlimit="10" stroke-width=".73699"/><path d="m291.49 535.69 4.79 5.017" fill="none" stroke="#6dac43" stroke-linejoin="round" stroke-miterlimit="10" stroke-width=".73699"/><path d="m299.71 544.31 4.791 5.017" fill="none" stroke="#6dac43" stroke-linejoin="round" stroke-miterlimit="10" stroke-width=".73699"/><path d="m307.93 552.92 4.79 5.018" fill="none" stroke="#6dac43" stroke-linejoin="round" stroke-miterlimit="10" stroke-width=".73699"/><path d="m316.15 561.51 4.791 5.046" fill="none" stroke="#6dac43" stroke-linejoin="round" stroke-miterlimit="10" stroke-width=".73699"/><path d="m324.37 570.13 4.79 5.045" fill="none" stroke="#6dac43" stroke-linejoin="round" stroke-miterlimit="10" stroke-width=".73699"/><path d="m332.56 578.75 4.819 5.046" fill="none" stroke="#6dac43" stroke-linejoin="round" stroke-miterlimit="10" stroke-width=".73699"/><path d="m340.78 587.37 4.791 5.046" fill="none" stroke="#6dac43" stroke-linejoin="round" stroke-miterlimit="10" stroke-width=".73699"/><path d="m349 595.98 4.79 5.046" fill="none" stroke="#6dac43" stroke-linejoin="round" stroke-miterlimit="10" stroke-width=".73699"/><path d="m357.22 604.6 4.791 5.045" fill="none" stroke="#6dac43" stroke-linejoin="round" stroke-miterlimit="10" stroke-width=".73699"/><path d="m365.44 613.22 4.79 5.017" fill="none" stroke="#6dac43" stroke-linejoin="round" stroke-miterlimit="10" stroke-width=".73699"/><path d="m373.66 621.84 4.791 5.018" fill="none" stroke="#6dac43" stroke-linejoin="round" stroke-miterlimit="10" stroke-width=".73699"/><path d="m381.88 630.45 4.791 5.017" fill="none" stroke="#6dac43" stroke-linejoin="round" stroke-miterlimit="10" stroke-width=".73699"/><path d="m390.08 639.07 4.818 5.017" fill="none" stroke="#6dac43" stroke-linejoin="round" stroke-miterlimit="10" stroke-width=".73699"/><path d="m398.3 647.69 4.791 5.018" fill="none" stroke="#6dac43" stroke-linejoin="round" stroke-miterlimit="10" stroke-width=".73699"/><path d="m406.52 656.3 4.79 5.017" fill="none" stroke="#6dac43" stroke-linejoin="round" stroke-miterlimit="10" stroke-width=".73699"/><path d="m414.74 664.92 4.791 5.017" fill="none" stroke="#6dac43" stroke-linejoin="round" stroke-miterlimit="10" stroke-width=".73699"/><path d="m422.96 673.54 4.791 5.018" fill="none" stroke="#6dac43" stroke-linejoin="round" stroke-miterlimit="10" stroke-width=".73699"/><path d="m431.18 682.16 4.791 5.017" fill="none" stroke="#6dac43" stroke-linejoin="round" stroke-miterlimit="10" stroke-width=".73699"/><path d="m439.4 690.77 4.791 5.017" fill="none" stroke="#6dac43" stroke-linejoin="round" stroke-miterlimit="10" stroke-width=".73699"/><path d="m447.59 699.39 4.818 5.018" fill="none" stroke="#6dac43" stroke-linejoin="round" stroke-miterlimit="10" stroke-width=".73699"/><path d="m455.81 708.01 4.791 5.017" fill="none" stroke="#6dac43" stroke-linejoin="round" stroke-miterlimit="10" stroke-width=".73699"/><path d="m246.64 628.47 3.174-0.312 3.203-0.539 3.232-0.709 3.26-0.907 3.288-1.105 3.288-1.304 3.288-1.474 3.26-1.673 3.26-1.842 3.232-2.041 3.174-2.183 3.175-2.352 3.09-2.523 3.005-2.665 2.976-2.778 2.863-2.948 2.778-3.061 2.665-3.175 4.648 2.75 1.474-15.364-14.882 7.313 4.593 2.778-2.608 3.062-2.693 2.948-2.778 2.778-2.863 2.692-2.92 2.523-2.976 2.381-3.005 2.268-3.09 2.069-3.089 1.9-3.09 1.7-3.147 1.559-3.118 1.389-3.118 1.163-3.118 0.992-3.061 0.793-3.062 0.596-3.005 0.397z" fill="#70ad47" fill-rule="evenodd"/><path d="m246.64 628.47 3.174-0.312 3.203-0.539 3.232-0.709 3.26-0.907 3.288-1.105 3.288-1.304 3.288-1.474 3.26-1.673 3.26-1.842 3.232-2.041 3.174-2.183 3.175-2.352 3.09-2.523 3.005-2.665 2.976-2.778 2.863-2.948 2.778-3.061 2.665-3.175 4.648 2.75 1.474-15.364-14.882 7.313 4.593 2.778-2.608 3.062-2.693 2.948-2.778 2.778-2.863 2.692-2.92 2.523-2.976 2.381-3.005 2.268-3.09 2.069-3.089 1.9-3.09 1.7-3.147 1.559-3.118 1.389-3.118 1.163-3.118 0.992-3.061 0.793-3.062 0.596-3.005 0.397z" fill="none" stroke="#527f34" stroke-linejoin="round" stroke-miterlimit="10" stroke-width="2.0126"/><text transform="matrix(1 0 0 -1 284.6 631.9)" fill="#70ad47" font-family="Carlito" font-size="18px"><tspan x="0 9.7019997 25.002001" y="0">AWA</tspan></text></g></g></svg>
